<svg width="300" height="300" viewBox="0 0 300 300" fill="none" xmlns="http://www.w3.org/2000/svg" role="img" aria-labelledby="avatarTitle">
  <title id="avatarTitle">Professional female profile avatar</title>
  <rect width="300" height="300" rx="58" fill="#2B2B2C"/>
  <circle cx="150" cy="132" r="78" fill="#343437"/>
  <path d="M83 250C94 215 119 195 150 195C181 195 206 215 217 250C199 260 176 266 150 266C124 266 101 260 83 250Z" fill="#8D6677"/>
  <path d="M123 187C129 198 138 204 150 204C162 204 171 198 177 187V219C166 229 134 229 123 219V187Z" fill="#D8A17D"/>
  <path d="M96 129C96 88 118 61 150 61C182 61 204 88 204 129V158C204 193 182 217 150 217C118 217 96 193 96 158V129Z" fill="#E8B08A"/>
  <path d="M93 145C83 143 77 151 80 164C83 177 92 181 99 174L93 145Z" fill="#D49A76"/>
  <path d="M207 145C217 143 223 151 220 164C217 177 208 181 201 174L207 145Z" fill="#D49A76"/>
  <path d="M105 137C111 131 124 130 134 135" stroke="#2A2424" stroke-width="6" stroke-linecap="round"/>
  <path d="M166 135C176 130 189 131 195 137" stroke="#2A2424" stroke-width="6" stroke-linecap="round"/>
  <path d="M133 171C142 178 158 178 167 171" stroke="#995969" stroke-width="7" stroke-linecap="round"/>
  <path d="M150 138C145 153 143 161 151 164" stroke="#C18464" stroke-width="5" stroke-linecap="round"/>
  <path d="M89 149C86 95 110 48 151 48C194 48 216 96 211 149C199 132 195 110 190 90C179 109 156 121 126 122C115 122 105 126 98 137C96 141 93 145 89 149Z" fill="#2C2421"/>
  <path d="M98 202C111 222 128 233 150 233C172 233 189 222 202 202C190 243 110 243 98 202Z" fill="#2C2421"/>
  <path d="M83 250C94 215 119 195 150 195C181 195 206 215 217 250C199 260 176 266 150 266C124 266 101 260 83 250Z" fill="url(#paint0_linear)"/>
  <path d="M105 236C117 224 132 218 150 218C168 218 183 224 195 236" stroke="#F4C76F" stroke-width="5" stroke-linecap="round"/>
  <defs>
    <linearGradient id="paint0_linear" x1="83" y1="195" x2="217" y2="266" gradientUnits="userSpaceOnUse">
      <stop stop-color="#705568"/>
      <stop offset="1" stop-color="#3C4155"/>
    </linearGradient>
  </defs>
</svg>
